<?xml version="1.0" encoding="UTF-8" standalone="no"?>
<!DOCTYPE svg PUBLIC "-//W3C//DTD SVG 1.1//EN" "http://www.w3.org/Graphics/SVG/1.1/DTD/svg11.dtd">
<!-- Created with Vectornator (http://vectornator.io/) -->
<svg height="100%" stroke-miterlimit="10" style="fill-rule:nonzero;clip-rule:evenodd;stroke-linecap:round;stroke-linejoin:round;" version="1.1" viewBox="0 0 256 256" width="100%" xml:space="preserve" xmlns="http://www.w3.org/2000/svg" xmlns:vectornator="http://vectornator.io" xmlns:xlink="http://www.w3.org/1999/xlink">
<defs>
<clipPath id="TextBounds">
<rect height="149" width="280.95" x="-12.475" y="53.5"/>
</clipPath>
</defs>
<clipPath id="ArtboardFrame">
<rect height="256" width="256" x="0" y="0"/>
</clipPath>
<g clip-path="url(#ArtboardFrame)" id="Layer-2" vectornator:layerName="Layer 2">
<path d="M160.125 92.4062C159.036 93.1439 158.685 93.3548 157.594 94.0938L155.031 104.406C155.726 103.757 156.502 103.083 157.188 102.438C158.168 99.0959 159.151 95.7498 160.125 92.4062Z" fill="#ffffff" fill-rule="nonzero" opacity="1" stroke="none"/>
<path d="M99.4688 73.875C98.2792 74.3568 97.6948 74.5353 95.9688 75.2812C96.6584 76.7456 97.3559 78.2282 98.3125 80.25C100.129 78.1992 101.874 76.1625 103.625 74.125L99.4688 73.875ZM46.8125 75.0312C45.7299 75.8845 44.9865 76.4806 43.8125 77.4062C45.107 76.7703 46.4671 76.0932 47.75 75.4688C47.4359 75.322 47.1311 75.1759 46.8125 75.0312ZM127.75 75.5938C122.572 82.6605 116.713 89.7322 109.125 98.0625C119.044 91.362 131.285 83.1111 141.156 76.4375L127.75 75.5938ZM183.438 76.4375C177.721 80.339 174.991 82.3497 166.562 88.0312C166.431 88.12 157.393 94.2433 153.969 96.5625C126.133 115.417 99.8511 132.811 74.375 149.219C72.319 150.543 67.7372 153.311 63.8438 155.562C53.7405 165.106 46.4026 172.176 39.5312 179.312C33.8088 185.256 29.6831 189.881 25.75 194.531C27.6087 193.768 29.3938 193.024 29.8125 192.812C37.8029 188.784 44.8563 185.094 51.4688 181.406C57.7821 177.885 64.3085 174.01 71.9062 169.344C94.8852 155.231 117.363 138.394 138.75 119.406C156.127 103.978 170.712 89.977 183.438 76.4375ZM67.8125 88.0625C60.8377 91.3565 53.5618 94.9574 46.25 98.5938C48.2042 101.686 50.3397 104.666 52.8125 107.469C55.2695 110.254 58.1899 112.603 61.0312 114.969C61.6323 115.469 62.2268 116 62.875 116.438C63.1984 116.656 63.5515 116.835 63.9062 117C64.3794 116.49 64.8718 115.911 65.3438 115.406C67.7632 112.818 75.8064 104.484 80.5312 99.5625C79.9716 98.9572 79.1 97.9816 78.5625 97.4375C75.2731 94.1078 71.6962 91.0618 67.8125 88.0625Z" fill="#ffffff" fill-rule="nonzero" opacity="1" stroke="none"/>
<path d="M144.849 106.171C144.785 106.296 144.602 106.418 144.657 106.547C148.246 114.997 151.358 123.691 155.721 131.769C157.995 135.979 161.541 139.365 164.439 143.171C167.018 146.558 169.066 150.456 172.269 153.259" fill="#ffffff" fill-rule="nonzero" opacity="1" stroke="none"/>
<path d="M92.3559 151.099C92.2715 151.207 92.0657 151.554 92.1027 151.422C98.0467 130.276 103.916 109.109 110.085 88.0277C111.326 83.787 114.07 80.0284 115.701 75.9463" fill="#ffffff" fill-rule="nonzero" opacity="1" stroke="none"/>
<path d="M74.7522 71.98C74.7254 72.0139 74.6408 72.0515 74.6717 72.0817C98.8032 95.6575 122.975 119.192 147.156 142.717C154.613 149.971 161.013 156.435 168.16 164.242C170.392 166.681 172.55 169.178 174.969 171.452C176.128 172.54 177.337 173.576 178.578 174.57C178.643 174.621 178.807 174.62 178.826 174.539C178.904 174.201 178.931 173.83 178.826 173.5C177.493 169.345 176.305 165.121 174.526 161.137C173.182 158.129 171.431 155.296 169.501 152.626C165.468 147.047 161.472 141.377 156.673 136.442C150.984 130.592 144.56 125.488 138.173 120.409C133.079 116.36 127.127 113.442 121.18 110.804C111.975 106.72 102.398 104.771 92.4257 104.082C90.3259 103.937 88.2317 103.965 86.1295 103.965C85.4917 103.965 84.8539 103.965 84.2161 103.965C84.0315 103.965 83.486 103.911 83.6623 103.965C101.888 109.605 119.03 118.07 135.54 127.554C142.659 131.644 149.663 136.088 155.865 141.468C158.49 143.745 160.963 146.191 163.552 148.509C165.616 150.357 167.797 152.076 169.824 153.965C170.806 154.879 172.895 157.752 173.399 158.717C173.51 158.93 173.537 159.356 173.309 159.431C172.59 159.666 171.769 159.694 171.04 159.491C168.959 158.912 166.892 158.183 165.011 157.122C162.148 155.508 157.793 151.86 155.289 149.311C153.549 147.54 151.567 145.932 150.248 143.829C146.157 137.305 142.613 130.447 139.148 123.57C135.905 117.135 134.49 105.895 134.49 98.9068" fill="#ffffff" fill-rule="nonzero" opacity="1" stroke="none"/>
<path d="M40.9221 73.5845C40.9221 73.7778 40.8571 73.9823 40.9221 74.1643C46.8586 90.7941 52.8942 107.388 58.9151 123.988C60.269 127.72 62.0327 132.925 65.4859 135.203C69.5326 137.873 74.7873 138.087 79.496 138.087C88.8527 138.087 96.2226 137.321 105.271 134.57C117.927 130.722 136.374 126.688 140.219 111.613C141.561 106.35 141.749 103.832 141.957 98.5672C142.026 96.8109 142.278 95.0322 142.014 93.2945C141.443 89.5437 140.678 85.7966 139.467 82.2012C138.698 79.9173 137.424 77.8191 136.119 75.7937C133.391 71.5641 130.562 67.382 127.392 63.4733C123.241 58.3557 117.471 52.8672 111.615 49.4135C104.32 45.1109 97.1668 40.48 89.4462 36.9973C86.4111 35.6282 82.9568 35.4604 79.6593 34.9988C71.3571 33.8365 63.0345 32.7476 54.6742 32.1293C50.0814 31.7896 45.4634 32.0971 40.8582 32.1293C39.4183 32.1393 37.9535 31.9795 36.5404 32.2559C20.1192 35.468 5.73054 41.7169-9.09064 49.3863C-15.7326 52.8233-22.1424 56.724-28.3474 60.8985C-35.2851 65.5659-42.6392 71.3852-47.3865 78.4537C-49.359 81.3908-51.6683 84.2398-52.7669 87.6029C-53.8526 90.9266-53.5523 94.5542-53.7857 98.043C-54.5679 109.734-48.7037 117.368-41.0902 125.624C-37.8202 129.17-34.5769 132.807-30.7672 135.766C-27.2235 138.518-23.0561 140.357-19.19 142.634C-16.3969 144.279-13.3695 145.5-10.3745 146.74" fill="#ffffff" fill-rule="nonzero" opacity="1" stroke="none"/>
<path d="M-5.35383 126.579C-5.41772 126.59-5.53546 126.547-5.54552 126.611C-7.72079 140.452-9.99474 154.28-11.8891 168.162C-12.8917 175.509-10.3523 181.517-7.692 188.073C-7.33435 188.955-6.92456 191.107-6.11823 191.728C-5.90125 191.896-6.28649 192.25-6.36317 192.513C-6.89275 194.329-7.56405 196.104-8.06237 197.929C-8.84143 200.782-8.85736 202.119-9.01964 205.394C-9.2014 209.062-9.05663 212.977-9.01964 216.607C-8.99748 218.782-9.22488 222.613-7.64348 224.647C-5.98569 226.78-2.8739 228.605-0.699968 230.195C-0.476439 230.358-1.14494 230.525-1.37681 230.676C-2.32061 231.292-1.98732 230.741-2.48554 232.138C-3.25085 234.283-4.14557 236.414-4.50423 238.682C-5.29926 243.71-4.80173 250.227-2.20392 254.584C0.64854 259.369 5.27397 263.598 9.45262 267.163C11.1742 268.632 12.7306 270.508 14.8709 271.449C16.2249 272.044 18.919 272.962 20.3945 273.513C21.7265 274.011 27.1345 273.588 29.9897 274.407C34.7182 275.763 39.3526 277.431 44.0033 279.034C44.1283 279.077 44.2572 279.117 44.3891 279.125C44.5946 279.136 44.34 278.553 44.5441 278.527C45.4652 278.408 46.3321 278.013 47.1959 277.672C48.6978 277.078 50.1988 276.481 51.7148 275.925C60.7283 272.617 69.6395 269.343 79.0688 267.378C90.9381 264.905 103.278 262.767 115.429 261.956C126.417 261.223 137.456 261.279 148.465 261.584C154.697 261.756 160.967 261.729 167.14 262.602C172.114 263.306 176.888 265.043 181.754 266.292C182.548 266.496 183.53 266.38 184.124 266.944C184.183 267 184.058 267.508 184.159 267.509C191.401 267.63 198.587 266.907 205.906 267.088C213.417 267.274 220.638 271.849 227.365 274.728C229.778 275.76 228.765 275.313 231.204 275.727C231.282 275.741 231.229 276.022 231.274 275.956C236.51 268.138 241.527 260.198 247.486 252.888C248.898 251.155 251.067 248.914 253.118 248.005C254.066 247.586 255.423 247.996 256.263 247.48C256.803 247.149 257.273 245.955 257.662 245.509C259.189 243.755 260.558 242.265 261.819 240.347C262.147 239.849 260.819 238.272 260.787 238.216C259.254 235.559 257.045 232.181 256.635 228.965C255.335 218.767 255.632 207.965 255.773 197.667C255.832 193.409 255.785 189.078 256.739 184.927C257.5 181.616 258.346 179.86 259.746 176.582C260.377 175.105 260.765 177.998 260.765 178.582C260.765 179.207 260.827 177.326 260.98 176.721C261.676 173.961 262.423 171.212 263.265 168.493C264.42 164.762 265.918 161.146 267.192 157.455C272.213 142.906 277.378 128.415 282.349 113.849C285.495 104.632 288.604 95.5539 291.272 86.1675C291.936 83.8314 291.969 81.4862 292.177 79.0584C292.239 78.332 292.299 77.6052 292.344 76.8776C292.376 76.3548 292.407 74.7835 292.407 75.3074C292.407 75.4017 292.417 75.676 292.407 75.66C292.139 75.2359 291.851 74.8252 291.589 74.3974C290.991 73.4189 290.466 72.395 289.828 71.4416C288.162 68.9494 286.38 66.5368 284.682 64.0662C279.782 56.9347 275.555 49.1505 271.645 41.4488C270.156 38.5175 268.997 35.1508 268.203 31.9577C267.676 29.8399 267.864 27.4372 266.714 25.5822C265.983 24.4017 264.848 23.2817 264.109 22.1483C259.592 15.2265 255.794 7.46952 252.206 0.0634585C251.04-2.34359 250.287-4.9555 249.574-7.52021C249.264-8.6359 249.235-9.8655 249.235-11.018C249.235-11.1531 249.303-11.4142 249.168-11.418C246.61-11.4886 244.039-11.1912 241.489-11.418C230.027-12.4372 218.937-14.8451 207.603-16.7984C189.568-19.9065 171.023-21.7511 152.778-22.8651C127.874-24.3856 103.258-24.4554 78.3648-24.4554C78.1792-24.4554 79.0613-24.6689 78.8759-24.6755C70.5959-24.9709 62.2222-24.5733 54.053-25.9558C34.727-29.2263 16.0069-35.9508-3.0547-40.3434C-10.8914-42.1492-18.7388-44.496-26.7772-44.7393C-29.6146-44.8251-32.4546-44.7393-35.2933-44.7393C-35.6983-44.7393-39.8862-44.7393-37.4114-44.7393" fill="#ffffff" fill-rule="nonzero" opacity="1" stroke="none"/>
<path d="M-25.6117 170.43C-25.6117 170.563-25.6456 170.7-25.6117 170.828C-22.6693 181.932-19.8382 193.068-16.6861 204.114C-15.3644 208.746-13.8606 210.525-10.2751 213.595C-9.88078 213.933-9.58401 214.387-9.15099 214.673C-8.89403 214.843-8.03218 214.717-8.26116 214.923C-10.1983 216.667-12.1677 220.548-13.599 222.895C-15.0189 225.223-17.2538 227.73-18.0114 230.382C-18.3722 231.644-16.8403 233.402-16.582 234.562C-16.1451 236.525-16.1363 239.188-15.3337 240.958C-13.8237 244.286-11.22 247.145-9.95444 250.583C-8.79567 253.73-7.80156 256.899-6.55249 260.042C-6.18188 260.974-6.05965 262.077-5.37868 262.814C-4.11909 264.178-1.77962 265.081-0.186423 265.943C3.39676 267.881 6.92949 269.999 10.6335 271.704C18.1277 275.155 25.1617 277.878 32.9432 280.62C37.803 282.333 42.6075 284.351 47.6195 285.591C48.4283 285.791 50.2142 285.591 50.8617 285.591C54.191 285.591 57.5204 285.591 60.8498 285.591C66.7193 285.591 72.5887 285.591 78.4582 285.591C94.774 285.591 110.885 285.177 126.922 288.855C137.733 291.334 148.408 294.378 159.091 297.36C166.845 299.525 174.421 302.31 182.205 304.368C185.639 305.275 189.113 306.02 192.572 306.828C192.697 306.857 192.827 306.888 192.955 306.88C195.443 306.726 201.864 304.45 204.774 303.369C209.061 301.776 213.302 300.062 217.581 298.448C226.841 294.955 236.52 291.893 245.002 286.689C249.271 284.071 252.763 280.602 256.513 277.343C259.25 274.964 262.324 273.002 265.172 270.764C270.65 266.46 277.085 263.281 282.186 258.37C286.983 253.751 286.487 247.419 286.76 241.249C287.056 234.56 287.164 227.625 286.489 220.953C285.998 216.1 284.603 211.535 283.694 206.782C283.321 204.83 285.202 197.951 286.005 195.089C288.538 186.067 290.911 176.851 292.783 167.679C293.312 165.087 293.798 162.484 294.203 159.87C294.772 156.194 295.582 149.698 294.517 146.135C292.472 139.294 290.91 132.448 289.908 125.266C287.828 110.367 286.878 95.2959 286.878 80.2618C286.878 75.8983 286.349 71.0665 286.878 66.6966C287.608 60.6774 289.049 54.788 289.592 48.7438C289.925 45.0335 288.221 42.1916 288.098 38.5498C287.741 27.916 285.362 17.1485 282.352 6.97384C281.604 4.44498 281.717 1.34278 280.811-1.07131C280.569-1.71573 279.463-1.40873 278.851-1.7233C277.987-2.16714 277.198-2.74307 276.376-3.26039C274.078-4.70613 271.952-6.61142 269.997-8.47749C269.348-9.09672 268.641-10.0414 268.224-10.7695C268.07-11.0373 268.288-11.5622 267.998-11.6676C266.848-12.0857 265.256-11.6403 264.052-11.7339C261.457-11.9354 258.755-12.7477 256.351-13.6484C249.247-16.3102 242.024-19.6627 234.515-20.96C233.185-21.1896 231.817-20.9824 230.468-20.9824C227.342-20.9824 224.217-20.9824 221.091-20.9824C218.618-20.9824 216.145-20.9492 213.672-20.9824C203.358-21.1213 191.987-22.6987 181.798-24.4554C177.227-25.2436 172.52-24.4554 167.881-24.4554C147.338-24.4554 126.771-24.6439 106.23-24.4554C103.581-24.4311 100.928-24.3554 98.2901-24.1111C89.2735-23.2758 80.362-21.575 71.5017-19.7483C67.0167-18.8236 62.341-16.373 57.7933-16.1333C46.5317-15.5398 35.1261-16.0369 23.8544-15.7429C13.6645-15.477 3.48993-15.3891-6.70987-15.3891C-10.0712-15.3891-13.4325-15.3891-16.7938-15.3891C-17.2079-15.3891-18.1476-15.5711-18.5238-15.3891C-19.1508-15.0857-20.1719-14.9643-20.8785-14.9643" fill="#ffffff" fill-rule="nonzero" opacity="1" stroke="none"/>
</g>
<g id="Layer-1" vectornator:layerName="Layer 1">
<g fill="#000000" opacity="1" stroke="none">
<path clip-path="url(#TextBounds)" d="M12.625 159.5L12.625 152.61L22.765 152.61L22.765 93.2L12.625 93.2L12.625 86.31L43.565 86.31L43.565 93.2L33.425 93.2L33.425 118.16L72.425 118.16L72.425 93.2L62.155 93.2L62.155 86.31L93.095 86.31L93.095 93.2L82.955 93.2L82.955 152.61L93.095 152.61L93.095 159.5L62.155 159.5L62.155 152.61L72.425 152.61L72.425 125.57L33.425 125.57L33.425 152.61L43.565 152.61L43.565 159.5L12.625 159.5Z"/>
<path clip-path="url(#TextBounds)" d="M131.055 159.5L110.255 93.2L101.285 93.2L101.285 86.31L129.885 86.31L129.885 93.2L120.395 93.2L136.255 145.98L155.105 87.61L162.775 87.61L181.755 145.98L197.225 93.2L187.735 93.2L187.735 86.31L215.035 86.31L215.035 93.2L205.935 93.2L185.785 159.5L176.685 159.5L158.355 104.12L140.155 159.5L131.055 159.5Z"/>
<path clip-path="url(#TextBounds)" d="M225.825 159.5L225.825 147.28L238.045 147.28L238.045 159.5L225.825 159.5Z"/>
</g>
</g>
</svg>
